<?xml version="1.0" encoding="UTF-8"?>
<svg id="Calque_2" xmlns="http://www.w3.org/2000/svg" width="407.03" height="407.03" viewBox="0 0 407.03 407.03">
  <g id="Favicon-MesSIV">
    <rect width="407.03" height="407.03" fill="#fff"/>
    <path d="M283.03,232.85c25.92,5.33,39.02,35.83,26.12,59-14.68,27.78-44.51,43.42-73.54,52.25-45.05,13.03-96.1,13.9-139.26-5.34-10.05-4.69-39.37-21.2-28.36-32.22,27.68,9.75,62.93,9.49,93.1,13.49,37.02,9.38,71.04,14.38,107.76-2.53,14.83-6.89,29.67-17.39,36.87-32.8,9.7-19.27-1.75-43.78-22.59-49.29-8.04-2.82-18.41-4.46-26.5-5.84-7.24-2.08,23.57,1.42,26.41,3.28Z"/>
    <path d="M237.42,229.66c20.54,1.83,46.09,1.52,61.56,18.25,11.25,12.98,7.87,33.44-3.87,44.87-16.11,16.59-40.52,23.55-61.83,24.94-10.49.14-27.44.98-32.1-6.25,2.93-7.64,14.26-8.92,23.12-13.2,17.1-6.85,38.99-12.53,54.23-24.15,10.32-7.81,6.44-18.26-2.52-24.67-25.17-20.41-68.72-15.13-102.21-21.2,18.7-2,42.38.7,63.62,1.4Z"/>
    <path d="M111.74,154.22c24.04-53.55,84.94-76.88,138.61-86.12,42.53-4.79,83.3,32.62,99.67,67.55-4.06,7.68-17.77-4.93-23.75-8.01-9.89-6.39-22.22-13.49-33.67-18.12-55.05-23.6-127.67-13.24-166.95,33.41-8.02,7.57-20.52,42.04-13.92,11.28Z"/>
    <path d="M141.73,220.61c-129.26-16.52-60.47-115.82-30.15-138.5,21.74-17.54,52.6-28.19,79.71-28.57,13.18-.94,48.42,4.72,22.57,14.62-25.94,10-55,22.47-76.2,42.09-19.54,17.26-34.43,41.76-37.56,67.36-.11.78-1.11,10.71-.71,13.56,3.27,23.33,61.51,31.71,42.33,29.45Z"/>
    <path d="M224.85,239.38c13.16,3.73-46.01,5.3-48.33,6.58-27.1,2.68-58.59,7.28-83.7-1.53-21.27-5.89-41.03-30.14-34.57-52.87,4.16-15.46,11.06-2.16,15.43,4.92,11.99,22.26,41.65,23.15,63.12,26.66,25.76,7.28,63.78,9.85,88.05,16.23Z"/>
    <path d="M305.62,180.11c15.63-11.08,7.46-31.06-5.62-40.37-21.23-15.99-52.74-24.75-78.99-26.41-21.1-.06-58.06,7.45-50.38,34.14,26-13.21,45.82-20.59,75.54-11.31,28.98,7.65,46.42,14.95,59.45,43.95Z" fill="#f36d3d"/>
    <path d="M214.09,191.05c-6.2,6.54-6.6,15.24-.89,19.42,5.7,4.18,15.35,2.25,21.55-4.29,6.2-6.55,6.6-15.24.89-19.42-5.7-4.18-15.35-2.26-21.55,4.29Z" fill="#f15a24"/>
  </g>
</svg>